<svg width="256" height="256" viewBox="0 0 256 256" fill="none" xmlns="http://www.w3.org/2000/svg">
<path d="M31.1554 48.4223C28.2072 49.8964 28.2072 54.1036 31.1554 55.5777L74.2111 77.1056C76.8707 78.4354 80 76.5014 80 73.5279V30.4721C80 27.4986 76.8708 25.5646 74.2111 26.8944L31.1554 48.4223Z" fill="white" stroke="white" stroke-width="24"/>
<path d="M128 52C144.614 52 160.854 56.9265 174.668 66.1566C188.482 75.3866 199.248 88.5056 205.606 103.855C211.964 119.204 213.627 136.093 210.386 152.388C207.145 168.682 199.145 183.649 187.397 195.397C175.649 207.145 160.682 215.145 144.388 218.386C128.093 221.627 111.204 219.964 95.8546 213.606C80.5056 207.248 67.3866 196.482 58.1566 182.668C48.9265 168.854 44 152.614 44 136" stroke="white" stroke-width="24" stroke-linecap="round" stroke-linejoin="round"/>
<rect x="92" y="40" width="36" height="24" fill="white"/>
</svg>
