<svg width="16" height="16" viewBox="0 0 16 16" fill="none" xmlns="http://www.w3.org/2000/svg">
<rect x="2.5" y="0.5" width="11" height="15" rx="1.5" fill="white" stroke="#1FB35B"/>
<rect x="1" y="8" width="15" height="6" rx="1" fill="#1FB35B"/>
<path d="M3.464 13.152C3.66667 13.152 3.832 13.1227 3.96 13.064C4.09333 13 4.19467 12.9173 4.264 12.816C4.33867 12.7093 4.38933 12.5893 4.416 12.456C4.44267 12.3173 4.456 12.176 4.456 12.032V11.888H5.512V12.032C5.512 12.6987 5.336 13.2133 4.984 13.576C4.63733 13.9333 4.13067 14.112 3.464 14.112C2.824 14.112 2.31733 13.9173 1.944 13.528C1.57067 13.1387 1.384 12.5707 1.384 11.824V10.576C1.384 10.2187 1.432 9.89867 1.528 9.616C1.624 9.328 1.76267 9.088 1.944 8.896C2.12533 8.69867 2.344 8.54933 2.6 8.448C2.856 8.34133 3.144 8.288 3.464 8.288C3.79467 8.288 4.088 8.336 4.344 8.432C4.6 8.528 4.81333 8.66667 4.984 8.848C5.16 9.02933 5.29067 9.248 5.376 9.504C5.46667 9.76 5.512 10.048 5.512 10.368V10.512H4.456V10.368C4.456 10.2347 4.44 10.1013 4.408 9.968C4.376 9.83467 4.32267 9.71467 4.248 9.608C4.17333 9.50133 4.072 9.416 3.944 9.352C3.816 9.28267 3.656 9.248 3.464 9.248C3.288 9.248 3.136 9.28267 3.008 9.352C2.88 9.416 2.77333 9.50667 2.688 9.624C2.60267 9.736 2.53867 9.86933 2.496 10.024C2.45867 10.1733 2.44 10.3307 2.44 10.496V11.904C2.44 12.0853 2.45867 12.2533 2.496 12.408C2.53333 12.5573 2.592 12.688 2.672 12.8C2.752 12.912 2.856 13 2.984 13.064C3.11733 13.1227 3.27733 13.152 3.464 13.152ZM9.30644 10.112C9.30644 9.888 9.21844 9.69333 9.04244 9.528C8.87177 9.36267 8.6291 9.28 8.31444 9.28C8.04777 9.28 7.8371 9.336 7.68244 9.448C7.52777 9.55467 7.45044 9.70133 7.45044 9.888C7.45044 9.984 7.4691 10.072 7.50644 10.152C7.54377 10.2267 7.60777 10.296 7.69844 10.36C7.79444 10.4187 7.9171 10.472 8.06644 10.52C8.2211 10.568 8.41577 10.6133 8.65044 10.656C9.2371 10.7627 9.6851 10.9413 9.99444 11.192C10.3038 11.4427 10.4584 11.8133 10.4584 12.304V12.4C10.4584 12.6613 10.4104 12.8987 10.3144 13.112C10.2238 13.32 10.0904 13.4987 9.91444 13.648C9.73844 13.7973 9.5251 13.912 9.27444 13.992C9.02377 14.072 8.7411 14.112 8.42644 14.112C8.05844 14.112 7.7331 14.0613 7.45044 13.96C7.1731 13.8533 6.9411 13.7093 6.75444 13.528C6.56777 13.3413 6.42644 13.1253 6.33044 12.88C6.23444 12.6293 6.18644 12.3573 6.18644 12.064V11.824H7.24244V12.016C7.24244 12.352 7.33844 12.6213 7.53044 12.824C7.72777 13.0213 8.03177 13.12 8.44244 13.12C8.76244 13.12 8.99977 13.0507 9.15444 12.912C9.3091 12.7733 9.38644 12.608 9.38644 12.416C9.38644 12.3253 9.37044 12.24 9.33844 12.16C9.30644 12.0747 9.25044 12 9.17044 11.936C9.09044 11.8667 8.9811 11.8053 8.84244 11.752C8.70377 11.6987 8.52777 11.6533 8.31444 11.616C8.03177 11.568 7.7731 11.5067 7.53844 11.432C7.30377 11.352 7.09844 11.248 6.92244 11.12C6.75177 10.992 6.61844 10.832 6.52244 10.64C6.42644 10.448 6.37844 10.2133 6.37844 9.936V9.888C6.37844 9.65867 6.42377 9.448 6.51444 9.256C6.61044 9.05867 6.7411 8.888 6.90644 8.744C7.0771 8.6 7.27977 8.488 7.51444 8.408C7.75444 8.328 8.0211 8.288 8.31444 8.288C8.6451 8.288 8.93844 8.336 9.19444 8.432C9.45044 8.52267 9.66377 8.648 9.83444 8.808C10.0104 8.968 10.1411 9.152 10.2264 9.36C10.3171 9.568 10.3624 9.78667 10.3624 10.016V10.304H9.30644V10.112ZM10.9889 8.4H12.0769L13.1729 13.472H13.3169L14.4129 8.4H15.5009L14.2369 14H12.2529L10.9889 8.4Z" fill="white"/>
<rect x="4" y="3" width="7" height="1" rx="0.5" fill="#1FB35B"/>
<rect x="4" y="5" width="7" height="1" rx="0.5" fill="#1FB35B"/>
<rect x="4" y="7" width="7" height="1" rx="0.5" fill="#1FB35B"/>
</svg>
