<svg width="16" height="16" viewBox="0 0 16 16" fill="none" xmlns="http://www.w3.org/2000/svg">
<rect x="2.5" y="0.5" width="11" height="15" rx="1.5" fill="white" stroke="#1FB35B"/>
<rect y="6" width="16" height="8" rx="1" fill="#1FB35B"/>
<path d="M2.618 12.099C2.83333 12.099 3.009 12.0678 3.145 12.0055C3.28667 11.9375 3.39433 11.8497 3.468 11.742C3.54733 11.6287 3.60117 11.5012 3.6295 11.3595C3.65783 11.2122 3.672 11.062 3.672 10.909V10.756H4.794V10.909C4.794 11.6173 4.607 12.1642 4.233 12.5495C3.86467 12.9292 3.32633 13.119 2.618 13.119C1.938 13.119 1.39967 12.9122 1.003 12.4985C0.606333 12.0848 0.408 11.4813 0.408 10.688V9.362C0.408 8.98233 0.459 8.64233 0.561 8.342C0.663 8.036 0.810333 7.781 1.003 7.577C1.19567 7.36733 1.428 7.20867 1.7 7.101C1.972 6.98767 2.278 6.931 2.618 6.931C2.96933 6.931 3.281 6.982 3.553 7.084C3.825 7.186 4.05167 7.33333 4.233 7.526C4.42 7.71867 4.55883 7.951 4.6495 8.223C4.74583 8.495 4.794 8.801 4.794 9.141V9.294H3.672V9.141C3.672 8.99933 3.655 8.85767 3.621 8.716C3.587 8.57433 3.53033 8.44683 3.451 8.3335C3.37167 8.22017 3.264 8.1295 3.128 8.0615C2.992 7.98783 2.822 7.951 2.618 7.951C2.431 7.951 2.2695 7.98783 2.1335 8.0615C1.9975 8.1295 1.88417 8.22583 1.7935 8.3505C1.70283 8.4695 1.63483 8.61117 1.5895 8.7755C1.54983 8.93417 1.53 9.10133 1.53 9.277V10.773C1.53 10.9657 1.54983 11.1442 1.5895 11.3085C1.62917 11.4672 1.6915 11.606 1.7765 11.725C1.8615 11.844 1.972 11.9375 2.108 12.0055C2.24967 12.0678 2.41967 12.099 2.618 12.099ZM8.82559 8.869C8.82559 8.631 8.73209 8.42417 8.54509 8.2485C8.36376 8.07283 8.10592 7.985 7.77159 7.985C7.48826 7.985 7.26442 8.0445 7.10009 8.1635C6.93576 8.27683 6.85359 8.43267 6.85359 8.631C6.85359 8.733 6.87342 8.8265 6.91309 8.9115C6.95276 8.99083 7.02076 9.0645 7.11709 9.1325C7.21909 9.19483 7.34942 9.2515 7.50809 9.3025C7.67242 9.3535 7.87926 9.40167 8.12859 9.447C8.75192 9.56033 9.22792 9.75017 9.55659 10.0165C9.88526 10.2828 10.0496 10.6767 10.0496 11.198V11.3C10.0496 11.5777 9.99859 11.8298 9.89659 12.0565C9.80026 12.2775 9.65859 12.4673 9.47159 12.626C9.28459 12.7847 9.05792 12.9065 8.79159 12.9915C8.52526 13.0765 8.22492 13.119 7.89059 13.119C7.49959 13.119 7.15392 13.0652 6.85359 12.9575C6.55892 12.8442 6.31242 12.6912 6.11409 12.4985C5.91576 12.3002 5.76559 12.0707 5.66359 11.81C5.56159 11.5437 5.51059 11.2547 5.51059 10.943V10.688H6.63259V10.892C6.63259 11.249 6.73459 11.5352 6.93859 11.7505C7.14826 11.9602 7.47126 12.065 7.90759 12.065C8.24759 12.065 8.49976 11.9913 8.66409 11.844C8.82842 11.6967 8.91059 11.521 8.91059 11.317C8.91059 11.2207 8.89359 11.13 8.85959 11.045C8.82559 10.9543 8.76609 10.875 8.68109 10.807C8.59609 10.7333 8.47992 10.6682 8.33259 10.6115C8.18526 10.5548 7.99826 10.5067 7.77159 10.467C7.47126 10.416 7.19642 10.3508 6.94709 10.2715C6.69776 10.1865 6.47959 10.076 6.29259 9.94C6.11126 9.804 5.96959 9.634 5.86759 9.43C5.76559 9.226 5.71459 8.97667 5.71459 8.682V8.631C5.71459 8.38733 5.76276 8.1635 5.85909 7.9595C5.96109 7.74983 6.09992 7.5685 6.27559 7.4155C6.45692 7.2625 6.67226 7.1435 6.92159 7.0585C7.17659 6.9735 7.45992 6.931 7.77159 6.931C8.12292 6.931 8.43459 6.982 8.70659 7.084C8.97859 7.18033 9.20526 7.3135 9.38659 7.4835C9.57359 7.6535 9.71242 7.849 9.80309 8.07C9.89942 8.291 9.94759 8.52333 9.94759 8.767V9.073H8.82559V8.869ZM10.6132 7.05H11.7692L12.9337 12.439H13.0867L14.2512 7.05H15.4072L14.0642 13H11.9562L10.6132 7.05Z" fill="white"/>
<rect x="4" y="2" width="8" height="1" rx="0.5" fill="#1FB35B"/>
<rect x="4" y="4" width="8" height="1" rx="0.5" fill="#1FB35B"/>
</svg>
