<svg width="16" height="17" viewBox="0 0 16 17" fill="none" xmlns="http://www.w3.org/2000/svg">
<rect x="0.5" y="0.5" width="11" height="15" rx="1.5" fill="#478CBF" stroke="#363D52"/>
<path d="M13.538 9.682C13.538 9.318 13.395 9.00167 13.109 8.733C12.8317 8.46433 12.4373 8.33 11.926 8.33C11.4927 8.33 11.1503 8.421 10.899 8.603C10.6477 8.77633 10.522 9.01467 10.522 9.318C10.522 9.474 10.5523 9.617 10.613 9.747C10.6737 9.86833 10.7777 9.981 10.925 10.085C11.081 10.1803 11.2803 10.267 11.523 10.345C11.7743 10.423 12.0907 10.4967 12.472 10.566C13.4253 10.7393 14.1533 11.0297 14.656 11.437C15.1587 11.8443 15.41 12.4467 15.41 13.244V13.4C15.41 13.8247 15.332 14.2103 15.176 14.557C15.0287 14.895 14.812 15.1853 14.526 15.428C14.24 15.6707 13.8933 15.857 13.486 15.987C13.0787 16.117 12.6193 16.182 12.108 16.182C11.51 16.182 10.9813 16.0997 10.522 15.935C10.0713 15.7617 9.69433 15.5277 9.391 15.233C9.08767 14.9297 8.858 14.5787 8.702 14.18C8.546 13.7727 8.468 13.3307 8.468 12.854V12.464H10.184V12.776C10.184 13.322 10.34 13.7597 10.652 14.089C10.9727 14.4097 11.4667 14.57 12.134 14.57C12.654 14.57 13.0397 14.4573 13.291 14.232C13.5423 14.0067 13.668 13.738 13.668 13.426C13.668 13.2787 13.642 13.14 13.59 13.01C13.538 12.8713 13.447 12.75 13.317 12.646C13.187 12.5333 13.0093 12.4337 12.784 12.347C12.5587 12.2603 12.2727 12.1867 11.926 12.126C11.4667 12.048 11.0463 11.9483 10.665 11.827C10.2837 11.697 9.95 11.528 9.664 11.32C9.38667 11.112 9.17 10.852 9.014 10.54C8.858 10.228 8.78 9.84667 8.78 9.396V9.318C8.78 8.94533 8.85367 8.603 9.001 8.291C9.157 7.97033 9.36933 7.693 9.638 7.459C9.91533 7.225 10.2447 7.043 10.626 6.913C11.016 6.783 11.4493 6.718 11.926 6.718C12.4633 6.718 12.94 6.796 13.356 6.952C13.772 7.09933 14.1187 7.303 14.396 7.563C14.682 7.823 14.8943 8.122 15.033 8.46C15.1803 8.798 15.254 9.15333 15.254 9.526V9.994H13.538V9.682Z" fill="white"/>
<rect x="2" y="3" width="4" height="1" rx="0.5" fill="white"/>
<rect x="2" y="5" width="4" height="1" rx="0.5" fill="white"/>
<rect x="2" y="7" width="4" height="1" rx="0.5" fill="white"/>
<rect x="2" y="9" width="4" height="1" rx="0.5" fill="white"/>
</svg>
