<svg width="256" height="256" viewBox="0 0 256 256" fill="none" xmlns="http://www.w3.org/2000/svg">
<rect width="210" height="16" rx="8" transform="matrix(-0.707107 -0.707107 -0.707107 0.707107 231.806 168.492)" fill="white"/>
<mask id="path-2-inside-1_186_81" fill="white">
<path fill-rule="evenodd" clip-rule="evenodd" d="M225.803 78.2762L201.58 54.0535L177.711 30.1844C174.264 26.7371 168.561 27.1485 165.644 31.055L131.577 76.6809L116.405 77.2293C107.154 77.5637 98.1969 80.5661 90.613 85.8748L73.9476 97.5406L111.071 134.664L53.4415 192.293V202.192L53.088 202.546L53.4415 202.546L53.4415 202.899L53.7951 202.546L63.6946 202.546L121.324 144.917L158.447 182.04L170.113 165.374C175.421 157.791 178.424 148.833 178.758 139.582L179.307 124.411L224.933 90.3432C228.839 87.4264 229.25 81.7235 225.803 78.2762Z"/>
</mask>
<path d="M201.58 54.0535L212.894 42.7398L212.894 42.7398L201.58 54.0535ZM177.711 30.1844L166.398 41.4981L166.398 41.4981L177.711 30.1844ZM165.644 31.055L152.824 21.4823L152.824 21.4823L165.644 31.055ZM131.577 76.6809L132.155 92.6705L139.813 92.3937L144.397 86.2535L131.577 76.6809ZM116.405 77.2293L115.827 61.2397L115.827 61.2397L116.405 77.2293ZM90.613 85.8748L81.4376 72.7671L81.4376 72.7671L90.613 85.8748ZM73.9476 97.5406L64.7722 84.4329L49.1489 95.3692L62.6339 108.854L73.9476 97.5406ZM111.071 134.664L122.384 145.977L133.698 134.664L122.384 123.35L111.071 134.664ZM53.4415 192.293L42.1278 180.979L37.4415 185.665V192.293L53.4415 192.293ZM53.4415 202.192L64.7552 213.506L69.4415 208.82V202.192H53.4415ZM53.088 202.546L41.7743 191.232L14.4612 218.545L53.0878 218.546L53.088 202.546ZM53.4415 202.546L69.4415 202.546L69.4413 186.546L53.4418 186.546L53.4415 202.546ZM53.4415 202.899L37.4415 202.9L37.4421 241.526L64.7552 214.213L53.4415 202.899ZM53.7951 202.546L53.7951 186.546L47.1677 186.546L42.4814 191.232L53.7951 202.546ZM63.6946 202.546L63.6946 218.546L70.322 218.546L75.0083 213.86L63.6946 202.546ZM121.324 144.917L132.638 133.603L121.324 122.289L110.01 133.603L121.324 144.917ZM158.447 182.04L147.133 193.354L160.618 206.839L171.555 191.215L158.447 182.04ZM170.113 165.374L183.22 174.55L183.22 174.55L170.113 165.374ZM178.758 139.582L162.769 139.004L162.769 139.004L178.758 139.582ZM179.307 124.411L169.734 111.59L163.594 116.175L163.317 123.833L179.307 124.411ZM224.933 90.3432L215.36 77.5228L215.36 77.5228L224.933 90.3432ZM190.267 65.3672L214.489 89.5899L237.117 66.9624L212.894 42.7398L190.267 65.3672ZM212.894 42.7398L189.025 18.8707L166.398 41.4981L190.267 65.3672L212.894 42.7398ZM189.025 18.8707C178.683 8.52867 161.574 9.76293 152.824 21.4823L178.465 40.6276C175.548 44.5341 169.845 44.9455 166.398 41.4981L189.025 18.8707ZM152.824 21.4823L118.756 67.1083L144.397 86.2535L178.465 40.6276L152.824 21.4823ZM130.999 60.6914L115.827 61.2397L116.983 93.2188L132.155 92.6705L130.999 60.6914ZM115.827 61.2397C103.492 61.6856 91.5494 65.6888 81.4376 72.7671L99.7884 98.9825C104.844 95.4434 110.816 93.4418 116.983 93.2188L115.827 61.2397ZM81.4376 72.7671L64.7722 84.4329L83.123 110.648L99.7884 98.9825L81.4376 72.7671ZM62.6339 108.854L99.757 145.977L122.384 123.35L85.2613 86.2269L62.6339 108.854ZM99.757 123.35L42.1278 180.979L64.7552 203.607L122.384 145.977L99.757 123.35ZM37.4415 192.293V202.192L69.4415 202.192V192.293L37.4415 192.293ZM64.4017 213.86L64.7552 213.506L42.1278 190.879L41.7743 191.232L64.4017 213.86ZM53.4418 186.546L53.0883 186.546L53.0878 218.546L53.4413 218.546L53.4418 186.546ZM37.4415 202.546L37.4415 202.9L69.4415 202.899L69.4415 202.546L37.4415 202.546ZM64.7552 214.213L65.1088 213.86L42.4814 191.232L42.1278 191.586L64.7552 214.213ZM63.6946 186.546L53.7951 186.546L53.7951 218.546L63.6946 218.546L63.6946 186.546ZM110.01 133.603L52.3809 191.232L75.0083 213.86L132.638 156.23L110.01 133.603ZM169.761 170.726L132.638 133.603L110.01 156.23L147.133 193.354L169.761 170.726ZM157.005 156.199L145.339 172.864L171.555 191.215L183.22 174.55L157.005 156.199ZM162.769 139.004C162.546 145.172 160.544 151.143 157.005 156.199L183.22 174.55C190.299 164.438 194.302 152.495 194.748 140.16L162.769 139.004ZM163.317 123.833L162.769 139.004L194.748 140.16L195.296 124.989L163.317 123.833ZM215.36 77.5228L169.734 111.59L188.879 137.231L234.505 103.164L215.36 77.5228ZM214.489 89.5899C211.042 86.1425 211.453 80.4396 215.36 77.5228L234.505 103.164C246.225 94.4133 247.459 77.3045 237.117 66.9624L214.489 89.5899Z" fill="white" mask="url(#path-2-inside-1_186_81)"/>
</svg>
