<svg width="256" height="256" viewBox="0 0 256 256" fill="none" xmlns="http://www.w3.org/2000/svg">
<path fill-rule="evenodd" clip-rule="evenodd" d="M218.343 207.343C221.467 210.467 221.467 215.533 218.343 218.657C215.219 221.781 210.154 221.781 207.029 218.657L130.828 142.456C129.266 140.894 126.734 140.894 125.172 142.456L48.9706 218.657C45.8464 221.781 40.781 221.781 37.6569 218.657C34.5327 215.533 34.5327 210.467 37.6569 207.343L113.858 131.142C115.42 129.58 115.42 127.047 113.858 125.485L37.3238 48.9512C34.1996 45.827 34.1996 40.7617 37.3238 37.6375C40.448 34.5133 45.5133 34.5133 48.6375 37.6375L125.172 114.172C126.734 115.734 129.266 115.734 130.828 114.172L207.362 37.6375C210.487 34.5133 215.552 34.5133 218.676 37.6375C221.8 40.7617 221.8 45.827 218.676 48.9512L142.142 125.485C140.58 127.047 140.58 129.58 142.142 131.142L218.343 207.343Z" fill="white"/>
</svg>
