<svg width="64" height="64" viewBox="0 0 64 64" fill="none" xmlns="http://www.w3.org/2000/svg">
<circle cx="32.5" cy="36.8125" r="22.5" stroke="white" stroke-width="6"/>
<path d="M13.9346 12.4682C15.673 11.1051 18.1873 11.4093 19.5505 13.1477V13.1477L12.4682 18.7012V18.7012C11.1051 16.9628 11.4093 14.4484 13.1477 13.0853L13.9346 12.4682Z" fill="white"/>
<path fill-rule="evenodd" clip-rule="evenodd" d="M27.9062 1C26.3012 1 25 2.30117 25 3.90625C25 5.51133 26.3012 6.8125 27.9063 6.8125H27.625V10.2812H37.375V6.8125H37.0938C38.6988 6.8125 40 5.51133 40 3.90625C40 2.30117 38.6988 1 37.0938 1H27.9062Z" fill="white"/>
<path d="M33 26.5C34.8245 26.5 36.6175 26.9754 38.2023 27.8794C39.7871 28.7833 41.109 30.0846 42.0378 31.6551C42.9665 33.2255 43.47 35.0108 43.4987 36.8351C43.5274 38.6593 43.0802 40.4596 42.2012 42.0584C41.3223 43.6572 40.0419 44.9994 38.4862 45.9527C36.9306 46.906 35.1534 47.4375 33.3298 47.4948C31.5062 47.5521 29.6992 47.1333 28.0867 46.2795C26.4743 45.4258 25.1122 44.1667 24.1346 42.6262" stroke="white" stroke-width="3" stroke-linecap="round" stroke-linejoin="round"/>
</svg>
