<svg width="256" height="256" viewBox="0 0 256 256" fill="none" xmlns="http://www.w3.org/2000/svg">
<path fill-rule="evenodd" clip-rule="evenodd" d="M226.296 78.2955L202.073 54.0728L178.204 30.2038C174.756 26.7564 169.053 27.1678 166.137 31.0743L132.069 76.7003L116.898 77.2486C107.647 77.583 98.6893 80.5854 91.1054 85.8942L74.4401 97.5599L111.563 134.683L53.934 192.312V202.212L53.5805 202.565L53.934 202.565L53.934 202.919L54.2875 202.565L64.1871 202.565L121.816 144.936L158.939 182.059L170.605 165.394C175.914 157.81 178.916 148.853 179.251 139.601L179.799 124.43L225.425 90.3626C229.331 87.4458 229.743 81.7428 226.296 78.2955Z" fill="white"/>
</svg>
