<svg width="256" height="256" viewBox="0 0 256 256" fill="none" xmlns="http://www.w3.org/2000/svg">
<rect width="210" height="16" rx="8" transform="matrix(-0.707107 -0.707107 -0.707107 0.707107 243.806 157.492)" fill="white"/>
<path fill-rule="evenodd" clip-rule="evenodd" d="M178.811 138.125L178.758 139.582C178.424 148.833 175.421 157.791 170.113 165.374L158.447 182.04L121.324 144.917L63.6946 202.546H53.7951L53.4415 202.899L53.4415 202.546H53.088L53.4415 202.192V192.293L111.071 134.664L73.9476 97.5406L90.613 85.8748C98.1969 80.5661 107.154 77.5637 116.405 77.2293L117.863 77.1766L178.811 138.125ZM184.126 120.812L224.933 90.3433C228.839 87.4264 229.25 81.7235 225.803 78.2762L201.58 54.0535L177.711 30.1844C174.264 26.7371 168.561 27.1485 165.644 31.055L135.175 71.8616L184.126 120.812Z" fill="white"/>
</svg>
