<svg width="1028" height="1028" viewBox="0 0 1028 1028" fill="none" xmlns="http://www.w3.org/2000/svg">
<circle cx="514" cy="589" r="360" stroke="white" stroke-width="56"/>
<path d="M272.056 196.591C297.493 181.905 330.018 190.62 344.703 216.056L346.561 219.273L254.448 272.455L252.591 269.238C237.905 243.801 246.62 211.276 272.056 196.591V196.591Z" fill="white"/>
<path fill-rule="evenodd" clip-rule="evenodd" d="M465 80C447.879 80 434 93.8792 434 111C434 128.121 447.879 142 465 142H462V179H566V142H563C580.121 142 594 128.121 594 111C594 93.8792 580.121 80 563 80H465Z" fill="white"/>
<path d="M549.243 539.298C549.538 538.992 549.608 538.533 549.417 538.153L546.805 532.975C545.737 530.856 545.186 528.514 545.199 526.141L545.24 518.535L546.187 500.407C546.314 497.969 547.035 495.599 548.286 493.503L555.674 481.122L555.588 497.236C555.587 497.368 555.613 497.498 555.663 497.621L558.577 504.722C558.975 505.69 560.405 505.474 560.498 504.431L561.221 496.359L561.265 488.122C561.272 486.834 561.59 485.567 562.192 484.428L570.929 467.889C571.382 467.032 571.988 466.263 572.716 465.622L604.518 437.616L604.434 453.23C604.429 454.287 605.853 454.629 606.328 453.684L609.583 447.204L614.96 436.551C615.168 436.139 615.411 435.746 615.687 435.376L623.144 425.367C623.394 425.031 623.669 424.716 623.968 424.424L638.53 410.194C638.81 409.921 639.11 409.668 639.427 409.438L657.957 396.011L657.527 405.086C657.481 406.058 658.71 406.517 659.312 405.752L668.164 394.513C668.53 394.049 668.945 393.628 669.403 393.255L682.818 382.352C683.684 381.648 684.688 381.133 685.766 380.84L715.701 372.705C716.823 372.4 718.016 372.509 719.064 373.012V373.012C721.099 373.99 722.188 376.245 721.687 378.447L717.435 397.141C717.347 397.529 717.23 397.909 717.086 398.279L707.716 422.25C707.536 422.71 707.314 423.153 707.052 423.573L689.411 451.837C688.714 452.954 687.752 453.882 686.61 454.538L670.081 464.034C669.134 464.578 669.62 466.029 670.704 465.893L680.614 464.648L661.163 490.037C660.4 491.033 659.413 491.835 658.283 492.379L648.203 497.234L640.547 499.792C639.515 500.137 639.699 501.65 640.784 501.737L649.71 502.455L648.845 505.488C648.39 507.083 647.45 508.498 646.156 509.535L644.491 510.87C643.848 511.386 643.129 511.799 642.36 512.095L616.606 522.006C615.577 522.402 615.852 523.927 616.954 523.939L633.732 524.122L623.42 534.973C623.091 535.32 622.731 535.636 622.345 535.918L611.624 543.765L601.974 549.223C601.564 549.454 601.136 549.649 600.692 549.805L591.171 553.157C590.114 553.53 588.99 553.676 587.873 553.586L572.171 552.323C571.496 552.269 570.831 552.129 570.192 551.907L563.601 549.623C563.53 549.598 563.462 549.565 563.398 549.525L558.939 546.734C558.397 546.395 558.308 545.642 558.756 545.186L680.048 421.621C680.472 421.188 680.418 420.482 679.933 420.119L678.491 419.041C678.09 418.741 677.53 418.784 677.179 419.141L543.594 554.977C543.249 555.328 542.699 555.375 542.299 555.088L538.328 552.24C537.832 551.885 537.768 551.172 538.192 550.733L549.243 539.298Z" fill="white"/>
<path d="M477.823 630.088C477.532 630.389 477.459 630.839 477.641 631.217L478.072 632.113C479.127 634.305 479.633 636.721 479.547 639.152L479.46 641.579L478.771 649.953C478.577 652.305 477.831 654.579 476.594 656.588L473.141 662.193L473.451 653.483C473.456 653.348 473.434 653.214 473.385 653.088L472.606 651.063C472.231 650.09 470.804 650.268 470.68 651.304L470.362 653.96L470.232 657.63C470.187 658.881 469.85 660.103 469.247 661.2L464.859 669.183C464.418 669.985 463.842 670.706 463.157 671.313L445.736 686.77L445.967 680.296C446.004 679.233 444.576 678.853 444.082 679.796L443.127 681.615L440.139 687.287C439.935 687.674 439.7 688.043 439.436 688.392L435.501 693.581C435.263 693.894 435.003 694.19 434.722 694.465L426.464 702.546L415.852 710.385L416.118 706.954C416.194 705.972 414.954 705.483 414.339 706.253L410.46 711.109C410.113 711.543 409.722 711.94 409.293 712.293L402.551 717.839C401.73 718.515 400.783 719.02 399.764 719.325L383.857 724.09C383.278 724.263 382.656 724.221 382.107 723.97V723.97C381.01 723.469 380.429 722.254 380.728 721.085L383.312 710.988C383.407 710.616 383.529 710.252 383.677 709.897L388.985 697.141C389.166 696.706 389.385 696.288 389.64 695.892L399.176 681.044C399.847 679.999 400.752 679.125 401.82 678.491L408.308 674.634C409.253 674.072 408.73 672.617 407.643 672.786L404.606 673.258L415.208 659.637C415.935 658.703 416.861 657.941 417.918 657.408L422.853 654.918L424.959 654.159C425.987 653.788 425.761 652.274 424.67 652.219L422.116 652.091L422.393 651.205C422.829 649.811 423.666 648.577 424.799 647.656V647.656C425.363 647.198 425.991 646.826 426.663 646.55L438.277 641.785C439.301 641.364 438.985 639.838 437.878 639.86L431.204 639.989L436.829 634.087C437.14 633.761 437.477 633.462 437.838 633.193L443.607 628.891L448.73 625.891C449.117 625.664 449.523 625.47 449.942 625.311L454.259 623.678C455.29 623.288 456.391 623.115 457.492 623.171L464.816 623.539C465.508 623.574 466.192 623.698 466.851 623.909L469.887 624.88C469.962 624.904 470.034 624.937 470.101 624.978L471.928 626.087C472.479 626.421 472.574 627.183 472.122 627.642L404.563 696.393C404.136 696.827 404.196 697.541 404.687 697.902V697.902C405.087 698.196 405.645 698.153 405.993 697.799L480.705 621.902C481.048 621.554 481.592 621.504 481.993 621.785L483.338 622.73C483.841 623.083 483.909 623.803 483.482 624.244L477.823 630.088Z" fill="white"/>
<circle cx="514" cy="589" r="48" fill="white"/>
</svg>
