<svg width="1028" height="1028" viewBox="0 0 1028 1028" fill="none" xmlns="http://www.w3.org/2000/svg">
<rect width="1028" height="1028" rx="128" fill="#363D52"/>
<circle cx="514" cy="609" r="360" fill="#363D52" stroke="white" stroke-width="96"/>
<path d="M216.954 218.492C244.768 196.681 284.997 201.548 306.808 229.363L193.492 318.219C171.681 290.404 176.548 250.175 204.363 228.365L216.954 218.492Z" fill="white"/>
<path fill-rule="evenodd" clip-rule="evenodd" d="M426 20C408.327 20 394 34.3269 394 52V81C394 98.6731 408.327 113 426 113H436V168.5H592V113H602C619.673 113 634 98.6731 634 81V52C634 34.3269 619.673 20 602 20H426Z" fill="white"/>
<path d="M549.243 559.298C549.538 558.992 549.608 558.533 549.417 558.153L546.805 552.975C545.737 550.856 545.186 548.514 545.199 546.141L545.24 538.535L546.187 520.407C546.314 517.969 547.035 515.599 548.286 513.503L555.674 501.122L555.588 517.236C555.587 517.368 555.613 517.498 555.663 517.621L558.577 524.722C558.975 525.69 560.405 525.474 560.498 524.431L561.221 516.359L561.265 508.122C561.272 506.835 561.59 505.567 562.192 504.428L570.929 487.889C571.382 487.032 571.988 486.263 572.716 485.622L604.518 457.616L604.434 473.23C604.429 474.287 605.853 474.629 606.328 473.684L609.583 467.204L614.96 456.551C615.168 456.139 615.411 455.746 615.687 455.376L623.144 445.367C623.394 445.031 623.669 444.716 623.968 444.424L638.53 430.194C638.81 429.921 639.11 429.668 639.427 429.438L657.957 416.011L657.527 425.086C657.481 426.058 658.71 426.517 659.312 425.752L668.164 414.513C668.53 414.049 668.945 413.628 669.403 413.255L682.818 402.352C683.684 401.648 684.688 401.133 685.766 400.84L715.701 392.705C716.823 392.4 718.016 392.509 719.064 393.012C721.099 393.99 722.188 396.245 721.687 398.447L717.435 417.141C717.347 417.529 717.23 417.909 717.086 418.279L707.716 442.25C707.536 442.71 707.314 443.153 707.052 443.573L689.411 471.837C688.714 472.954 687.752 473.882 686.61 474.538L670.081 484.034C669.134 484.578 669.62 486.029 670.704 485.893L680.614 484.648L661.163 510.037C660.4 511.033 659.413 511.835 658.283 512.379L648.203 517.234L640.547 519.792C639.515 520.137 639.699 521.65 640.784 521.737L649.71 522.455L648.845 525.488C648.39 527.083 647.45 528.498 646.156 529.535L644.491 530.87C643.848 531.386 643.129 531.799 642.36 532.095L616.606 542.006C615.577 542.402 615.852 543.927 616.954 543.939L633.732 544.122L623.42 554.973C623.091 555.32 622.731 555.636 622.345 555.918L611.624 563.765L601.974 569.223C601.564 569.454 601.136 569.649 600.692 569.805L591.171 573.157C590.114 573.53 588.99 573.676 587.873 573.586L572.171 572.323C571.496 572.269 570.831 572.129 570.192 571.907L563.601 569.623C563.53 569.598 563.462 569.565 563.398 569.525L558.939 566.734C558.397 566.395 558.308 565.642 558.756 565.186L680.048 441.621C680.472 441.188 680.418 440.482 679.933 440.119L678.491 439.041C678.09 438.741 677.53 438.784 677.179 439.141L543.594 574.977C543.249 575.328 542.699 575.375 542.299 575.088L538.328 572.24C537.832 571.885 537.768 571.172 538.192 570.733L549.243 559.298Z" fill="white"/>
<path d="M517.176 666.304C517.183 666.723 517.45 667.093 517.845 667.232L518.784 667.56C521.08 668.364 523.146 669.714 524.804 671.495L526.459 673.272L531.893 679.68C533.419 681.481 534.499 683.616 535.045 685.912L536.567 692.317L530.627 685.938C530.535 685.839 530.425 685.76 530.301 685.706L528.319 684.825C527.366 684.402 526.482 685.538 527.127 686.357L528.78 688.46L531.283 691.147C532.136 692.063 532.762 693.166 533.111 694.368L535.653 703.116C535.908 703.995 536.011 704.911 535.956 705.825L534.568 729.074L530.152 724.332C529.427 723.554 528.149 724.296 528.466 725.312L529.077 727.273L530.975 733.397C531.104 733.815 531.199 734.242 531.259 734.675L532.146 741.127C532.2 741.516 532.225 741.91 532.22 742.303L532.095 753.856L530.134 766.903L527.896 764.289C527.256 763.541 526.033 764.072 526.143 765.051L526.833 771.227C526.895 771.78 526.899 772.337 526.845 772.89L526.001 781.579C525.898 782.637 525.585 783.665 525.08 784.601L517.201 799.218C516.915 799.75 516.445 800.159 515.879 800.37C514.749 800.792 513.479 800.343 512.864 799.306L507.551 790.338C507.356 790.008 507.184 789.664 507.038 789.31L501.772 776.536C501.593 776.1 501.452 775.65 501.352 775.19L497.596 757.947C497.331 756.734 497.353 755.476 497.659 754.273L499.52 746.958C499.791 745.892 498.393 745.233 497.744 746.121L495.929 748.602L493.795 731.474C493.648 730.299 493.764 729.107 494.135 727.982L495.864 722.732L496.816 720.705C497.281 719.717 496.05 718.806 495.24 719.538L493.343 721.254L492.913 720.432C492.235 719.138 491.954 717.673 492.105 716.221C492.18 715.498 492.36 714.791 492.64 714.121L497.483 702.538C497.91 701.517 496.608 700.661 495.84 701.459L491.212 706.27L491.016 698.119C491.006 697.669 491.033 697.219 491.098 696.773L492.135 689.652L493.636 683.909C493.749 683.474 493.899 683.05 494.084 682.641L495.981 678.434C496.434 677.429 497.09 676.529 497.908 675.789L503.348 670.871C503.862 670.406 504.433 670.011 505.049 669.693L507.882 668.233C507.952 668.197 508.026 668.17 508.102 668.151L510.178 667.644C510.804 667.491 511.41 667.962 511.415 668.606L512.258 764.992C512.263 765.601 512.81 766.063 513.413 765.971C513.903 765.896 514.267 765.471 514.263 764.974L513.426 658.478C513.422 657.989 513.772 657.569 514.253 657.485L515.873 657.202C516.478 657.096 517.035 657.556 517.045 658.171L517.176 666.304Z" fill="white"/>
<circle cx="514" cy="609" r="48" fill="white"/>
</svg>
