<svg width="1028" height="1028" viewBox="0 0 1028 1028" fill="none" xmlns="http://www.w3.org/2000/svg">
<circle cx="514" cy="589" r="360" stroke="white" stroke-width="96"/>
<path d="M216.954 198.492C244.768 176.681 284.997 181.548 306.808 209.363L193.492 298.219C171.681 270.404 176.548 230.175 204.363 208.365L216.954 198.492Z" fill="white"/>
<path fill-rule="evenodd" clip-rule="evenodd" d="M426 0C408.327 0 394 14.3269 394 32V61C394 78.6731 408.327 93 426 93H436V148.5H592V93H602C619.673 93 634 78.6731 634 61V32C634 14.3269 619.673 0 602 0H426Z" fill="white"/>
<path d="M549.243 539.298C549.538 538.992 549.608 538.533 549.417 538.153L546.805 532.975C545.737 530.856 545.186 528.514 545.199 526.141L545.24 518.535L546.187 500.407C546.314 497.969 547.035 495.599 548.286 493.503L555.674 481.122L555.588 497.236C555.587 497.368 555.613 497.498 555.663 497.621L558.577 504.722C558.975 505.69 560.405 505.474 560.498 504.431L561.221 496.359L561.265 488.122C561.272 486.835 561.59 485.567 562.192 484.428L570.929 467.889C571.382 467.032 571.988 466.263 572.716 465.622L604.518 437.616L604.434 453.23C604.429 454.287 605.853 454.629 606.328 453.684L609.583 447.204L614.96 436.551C615.168 436.139 615.411 435.746 615.687 435.376L623.144 425.367C623.394 425.031 623.669 424.716 623.968 424.424L638.53 410.194C638.81 409.921 639.11 409.668 639.427 409.438L657.957 396.011L657.527 405.086C657.481 406.058 658.71 406.517 659.312 405.752L668.164 394.513C668.53 394.049 668.945 393.628 669.403 393.255L682.818 382.352C683.684 381.648 684.688 381.133 685.766 380.84L715.701 372.705C716.823 372.4 718.016 372.509 719.064 373.012C721.099 373.99 722.188 376.245 721.687 378.447L717.435 397.141C717.347 397.529 717.23 397.909 717.086 398.279L707.716 422.25C707.536 422.71 707.314 423.153 707.052 423.573L689.411 451.837C688.714 452.954 687.752 453.882 686.61 454.538L670.081 464.034C669.134 464.578 669.62 466.029 670.704 465.893L680.614 464.648L661.163 490.037C660.4 491.033 659.413 491.835 658.283 492.379L648.203 497.234L640.547 499.792C639.515 500.137 639.699 501.65 640.784 501.737L649.71 502.455L648.845 505.488C648.39 507.083 647.45 508.498 646.156 509.535L644.491 510.87C643.848 511.386 643.129 511.799 642.36 512.095L616.606 522.006C615.577 522.402 615.852 523.927 616.954 523.939L633.732 524.122L623.42 534.973C623.091 535.32 622.731 535.636 622.345 535.918L611.624 543.765L601.974 549.223C601.564 549.454 601.136 549.649 600.692 549.805L591.171 553.157C590.114 553.53 588.99 553.676 587.873 553.586L572.171 552.323C571.496 552.269 570.831 552.129 570.192 551.907L563.601 549.623C563.53 549.598 563.462 549.565 563.398 549.525L558.939 546.734C558.397 546.395 558.308 545.642 558.756 545.186L680.048 421.621C680.472 421.188 680.418 420.482 679.933 420.119L678.491 419.041C678.09 418.741 677.53 418.784 677.179 419.141L543.594 554.977C543.249 555.328 542.699 555.375 542.299 555.088L538.328 552.24C537.832 551.885 537.768 551.172 538.192 550.733L549.243 539.298Z" fill="white"/>
<path d="M517.176 646.304C517.183 646.723 517.45 647.093 517.845 647.232L518.784 647.56C521.08 648.364 523.146 649.714 524.804 651.495L526.459 653.272L531.893 659.68C533.419 661.481 534.499 663.616 535.045 665.912L536.567 672.317L530.627 665.938C530.535 665.839 530.425 665.76 530.301 665.706L528.319 664.825C527.366 664.402 526.482 665.538 527.127 666.357L528.78 668.46L531.283 671.147C532.136 672.063 532.762 673.166 533.111 674.368L535.653 683.116C535.908 683.995 536.011 684.911 535.956 685.825L534.568 709.074L530.152 704.332C529.427 703.554 528.149 704.296 528.466 705.312L529.077 707.273L530.975 713.397C531.104 713.815 531.199 714.242 531.259 714.675L532.146 721.127C532.2 721.516 532.225 721.91 532.22 722.303L532.095 733.856L530.134 746.903L527.896 744.289C527.256 743.541 526.033 744.072 526.143 745.051L526.833 751.227C526.895 751.78 526.899 752.337 526.845 752.89L526.001 761.579C525.898 762.637 525.585 763.665 525.08 764.601L517.201 779.218C516.915 779.75 516.445 780.159 515.879 780.37C514.749 780.792 513.479 780.343 512.864 779.306L507.551 770.338C507.356 770.008 507.184 769.664 507.038 769.31L501.772 756.536C501.593 756.1 501.452 755.65 501.352 755.19L497.596 737.947C497.331 736.734 497.353 735.476 497.659 734.273L499.52 726.958C499.791 725.892 498.393 725.233 497.744 726.121L495.929 728.602L493.795 711.474C493.648 710.299 493.764 709.107 494.135 707.982L495.864 702.732L496.816 700.705C497.281 699.717 496.05 698.806 495.24 699.538L493.343 701.254L492.913 700.432C492.235 699.138 491.954 697.673 492.105 696.221C492.18 695.498 492.36 694.791 492.64 694.121L497.483 682.538C497.91 681.517 496.608 680.661 495.84 681.459L491.212 686.27L491.016 678.119C491.006 677.669 491.033 677.219 491.098 676.773L492.135 669.652L493.636 663.909C493.749 663.474 493.899 663.05 494.084 662.641L495.981 658.434C496.434 657.429 497.09 656.529 497.908 655.789L503.348 650.871C503.862 650.406 504.433 650.011 505.049 649.693L507.882 648.233C507.952 648.197 508.026 648.17 508.102 648.151L510.178 647.644C510.804 647.491 511.41 647.962 511.415 648.606L512.258 744.992C512.263 745.601 512.81 746.063 513.413 745.971C513.903 745.896 514.267 745.471 514.263 744.974L513.426 638.478C513.422 637.989 513.772 637.569 514.253 637.485L515.873 637.202C516.478 637.096 517.035 637.556 517.045 638.171L517.176 646.304Z" fill="white"/>
<circle cx="514" cy="589" r="48" fill="white"/>
</svg>
